<?xml version="1.0" encoding="UTF-8" standalone="no"?>
<!-- Created with Inkscape (http://www.inkscape.org/) -->

<svg
   width="15mm"
   height="15mm"
   viewBox="0 0 15 15"
   version="1.1"
   id="svg1"
   inkscape:export-filename="cheese.png"
   inkscape:export-xdpi="100"
   inkscape:export-ydpi="100"
   xmlns:inkscape="http://www.inkscape.org/namespaces/inkscape"
   xmlns:sodipodi="http://sodipodi.sourceforge.net/DTD/sodipodi-0.dtd"
   xmlns="http://www.w3.org/2000/svg"
   xmlns:svg="http://www.w3.org/2000/svg">
  <sodipodi:namedview
     id="namedview1"
     pagecolor="#ffffff"
     bordercolor="#000000"
     borderopacity="0.25"
     inkscape:showpageshadow="2"
     inkscape:pageopacity="0.0"
     inkscape:pagecheckerboard="0"
     inkscape:deskcolor="#d1d1d1"
     inkscape:document-units="mm">
    <inkscape:page
       x="0"
       y="0"
       width="15"
       height="15"
       id="page2"
       margin="0"
       bleed="0" />
  </sodipodi:namedview>
  <defs
     id="defs1" />
  <g
     inkscape:label="Layer 1"
     inkscape:groupmode="layer"
     id="layer1">
    <path
       style="fill:#ffeeaa;stroke-width:0.264583"
       d="m 9.4230315,14.483549 c -0.8782754,-0.209429 -1.9161096,0.218975 -2.7920093,0 C 6.3184239,14.4054 5.6893146,14.274446 5.4095183,14.134548 5.2623663,14.060972 5.2076687,13.859123 5.060517,13.785547 3.7281002,13.119338 3.1418849,13.263794 2.4430082,11.86604 1.6621709,10.304366 1.3960047,8.7519315 1.3960047,6.9800233 c 0,-0.2857926 -0.069141,-0.7704415 0,-1.0470033 0.043358,-0.1734307 0.7924925,-1.6649954 0.8725029,-1.7450059 0.04113,-0.04113 0.1163337,0 0.1745006,0 0.1745006,-0.1163339 0.3976676,-0.1812224 0.5235017,-0.3490013 0.0698,-0.093067 -0.06453,-0.2522056 0,-0.349001 C 3.0906921,3.3037385 3.6600493,3.0559917 3.8390127,2.9665098 4.0451615,2.8634356 4.1700123,2.5713431 4.3625147,2.4430082 4.7445481,2.1883193 5.0330265,1.8214997 5.4095183,1.5705053 c 0.048398,-0.032265 0.1333703,0.04113 0.1745003,0 0.3610481,-0.3610479 -0.551729,0.014114 0.1745007,-0.3490012 0.052026,-0.026013 0.1333704,0.04113 0.1745006,0 0.04113,-0.04113 -0.026014,-0.1224746 0,-0.1745006 C 6.125935,0.66117313 6.0413224,0.99285225 6.282021,0.87250293 6.4782407,0.77439315 6.5988182,0.41790269 6.8055229,0.34900118 c 0.2207276,-0.0735759 0.4772744,0.0735759 0.6980023,0 C 7.5815643,0.32298817 7.6198588,0.23266745 7.6780258,0.17450059 7.8525262,0.11633373 8.0211597,0.03607356 8.2015275,0 c 0.4001011,-0.08002021 0.4486757,0.08973512 0.872503,0.17450059 0.1852519,0.0370504 1.0740055,-0.14749862 1.2215035,0 0.04113,0.0411302 -0.05203,0.14848758 0,0.17450059 0.232364,0.11618161 0.614214,0.10992821 0.872504,0.17450059 0.375436,0.0938589 0.730267,0.48684433 1.047003,0.69800233 0.36908,0.2460533 0.0049,0.3588223 0.174501,0.6980024 0.02601,0.052026 0.133371,-0.04113 0.174501,0 0.08226,0.08226 -0.05203,0.2449491 0,0.3490011 0.03679,0.073576 0.137712,0.1009247 0.1745,0.1745006 0.05203,0.1040521 -0.05203,0.2449491 0,0.3490012 0.151454,0.3029075 0.311579,0.3801171 0.523502,0.6980024 0.163545,0.2453177 -0.07216,0.9328689 0,1.2215039 0.01995,0.079805 0.116334,0.1163339 0.1745,0.1745007 0.05817,0.1163338 0.153119,0.2207059 0.174501,0.3490013 0.201957,1.2117377 0.06121,3.0094642 -0.174501,4.1880138 -0.210538,1.0526925 -0.08301,-0.1414883 -0.349001,0.523502 -0.131403,0.3285095 -0.01627,0.7305415 -0.1745,1.0470035 -0.07358,0.147152 -0.275425,0.20185 -0.349001,0.349001 -0.05203,0.104053 0.02821,0.236141 0,0.349002 -0.09168,0.366728 -0.404076,0.514225 -0.523502,0.872502 -0.07774,0.233221 -0.279356,0.489066 -0.349001,0.698003 -0.03679,0.110364 0.03679,0.238637 0,0.349001 -0.05203,0.156078 -0.257742,0.212112 -0.349001,0.349001 -0.07215,0.108221 -0.133371,0.225611 -0.174501,0.349001 -0.01839,0.05518 0.05203,0.148488 0,0.174501 -0.104052,0.05203 -0.24495,-0.05203 -0.349002,0 -0.136364,0.06818 0.233979,0.400061 -0.1745,0.349001 -0.420191,-0.05252 -0.8143364,-0.232667 -1.2215045,-0.349001 z"
       id="path2" />
  </g>
</svg>
