<?xml version="1.0" encoding="UTF-8" standalone="no"?>
<!-- Created with Inkscape (http://www.inkscape.org/) -->

<svg
   width="15mm"
   height="15mm"
   viewBox="0 0 15 15"
   version="1.1"
   id="svg1"
   inkscape:export-filename="cheese.png"
   inkscape:export-xdpi="100"
   inkscape:export-ydpi="100"
   sodipodi:docname="cheese.svg"
   xmlns:inkscape="http://www.inkscape.org/namespaces/inkscape"
   xmlns:sodipodi="http://sodipodi.sourceforge.net/DTD/sodipodi-0.dtd"
   xmlns="http://www.w3.org/2000/svg"
   xmlns:svg="http://www.w3.org/2000/svg">
  <sodipodi:namedview
     id="namedview1"
     pagecolor="#ffffff"
     bordercolor="#000000"
     borderopacity="0.25"
     inkscape:showpageshadow="2"
     inkscape:pageopacity="0.0"
     inkscape:pagecheckerboard="0"
     inkscape:deskcolor="#d1d1d1"
     inkscape:document-units="mm">
    <inkscape:page
       x="0"
       y="0"
       width="15"
       height="15"
       id="page2"
       margin="0"
       bleed="0" />
  </sodipodi:namedview>
  <defs
     id="defs1" />
  <g
     inkscape:label="Layer 1"
     inkscape:groupmode="layer"
     id="layer1">
    <path
       style="fill:#ffeeaa;stroke-width:0.264583"
       d="m 9.4230315,14.483549 c -0.8782754,-0.209429 -1.9161096,0.218975 -2.7920093,0 C 6.3184239,14.4054 5.6893146,14.274446 5.4095183,14.134548 5.2623663,14.060972 5.2076687,13.859123 5.060517,13.785547 3.7281002,13.119338 3.1418849,13.263794 2.4430082,11.86604 1.6621709,10.304366 1.3960047,8.7519315 1.3960047,6.9800233 c 0,-0.2857926 -0.069141,-0.7704415 0,-1.0470033 0.043358,-0.1734307 0.7924925,-1.6649954 0.8725029,-1.7450059 0.04113,-0.04113 0.1163337,0 0.1745006,0 0.1745006,-0.1163339 0.3976676,-0.1812224 0.5235017,-0.3490013 0.0698,-0.093067 -0.06453,-0.2522056 0,-0.349001 C 3.0906921,3.3037385 3.6600493,3.0559917 3.8390127,2.9665098 4.0451615,2.8634356 4.1700123,2.5713431 4.3625147,2.4430082 4.7445481,2.1883193 5.0330265,1.8214997 5.4095183,1.5705053 c 0.048398,-0.032265 0.1333703,0.04113 0.1745003,0 0.3610481,-0.3610479 -0.551729,0.014114 0.1745007,-0.3490012 0.052026,-0.026013 0.1333704,0.04113 0.1745006,0 0.04113,-0.04113 -0.026014,-0.1224746 0,-0.1745006 C 6.125935,0.66117313 6.0413224,0.99285225 6.282021,0.87250293 6.4782407,0.77439315 6.5988182,0.41790269 6.8055229,0.34900118 c 0.2207276,-0.0735759 0.4772744,0.0735759 0.6980023,0 C 7.5815643,0.32298817 7.6198588,0.23266745 7.6780258,0.17450059 7.8525262,0.11633373 8.0211597,0.03607356 8.2015275,0 c 0.4001011,-0.08002021 0.4486757,0.08973512 0.872503,0.17450059 0.1852519,0.0370504 1.0740055,-0.14749862 1.2215035,0 0.04113,0.0411302 -0.05203,0.14848758 0,0.17450059 0.232364,0.11618161 0.614214,0.10992821 0.872504,0.17450059 0.375436,0.0938589 0.730267,0.48684433 1.047003,0.69800233 0.36908,0.2460533 0.0049,0.3588223 0.174501,0.6980024 0.02601,0.052026 0.133371,-0.04113 0.174501,0 0.08226,0.08226 -0.05203,0.2449491 0,0.3490011 0.03679,0.073576 0.137712,0.1009247 0.1745,0.1745006 0.05203,0.1040521 -0.05203,0.2449491 0,0.3490012 0.151454,0.3029075 0.311579,0.3801171 0.523502,0.6980024 0.163545,0.2453177 -0.07216,0.9328689 0,1.2215039 0.01995,0.079805 0.116334,0.1163339 0.1745,0.1745007 0.05817,0.1163338 0.153119,0.2207059 0.174501,0.3490013 0.201957,1.2117377 0.06121,3.0094642 -0.174501,4.1880138 -0.210538,1.0526925 -0.08301,-0.1414883 -0.349001,0.523502 -0.131403,0.3285095 -0.01627,0.7305415 -0.1745,1.0470035 -0.07358,0.147152 -0.275425,0.20185 -0.349001,0.349001 -0.05203,0.104053 0.02821,0.236141 0,0.349002 -0.09168,0.366728 -0.404076,0.514225 -0.523502,0.872502 -0.07774,0.233221 -0.279356,0.489066 -0.349001,0.698003 -0.03679,0.110364 0.03679,0.238637 0,0.349001 -0.05203,0.156078 -0.257742,0.212112 -0.349001,0.349001 -0.07215,0.108221 -0.133371,0.225611 -0.174501,0.349001 -0.01839,0.05518 0.05203,0.148488 0,0.174501 -0.104052,0.05203 -0.24495,-0.05203 -0.349002,0 -0.136364,0.06818 0.233979,0.400061 -0.1745,0.349001 -0.420191,-0.05252 -0.8143364,-0.232667 -1.2215045,-0.349001 z"
       id="path2" />
    <path
       style="fill:#ffea96;stroke-width:0.0942137;fill-opacity:1"
       d="m 39.334233,55.859253 c -0.310905,-0.07431 -1.201309,-0.346369 -1.978675,-0.604572 -0.777366,-0.258202 -1.710082,-0.532303 -2.072703,-0.609112 -0.905559,-0.191813 -2.61081,-0.178206 -4.728702,0.03773 -2.676225,0.272866 -3.296245,0.303137 -4.225253,0.206293 C 25.379269,54.790602 22.875576,54.206261 21.433624,53.74708 20.513435,53.454051 20.476123,53.430859 19.831991,52.751547 19.096057,51.97542 18.907308,51.873514 15.937889,50.649099 13.266336,49.547506 12.437231,49.065345 11.423485,48.02377 9.2243187,45.764236 6.8091087,39.819751 5.9407728,34.529333 5.5235259,31.987217 5.2833202,28.363684 5.2444027,24.024502 l -0.01352,-1.50742 0.5472774,-1.177672 c 0.705799,-1.51879 2.451519,-4.925498 2.7100656,-5.288594 0.165224,-0.232035 0.2450178,-0.270584 0.4616251,-0.223009 0.2017493,0.04431 0.4427622,-0.04238 1.0497473,-0.377578 0.4333309,-0.239302 0.9083599,-0.548995 1.0556199,-0.688205 0.256113,-0.242113 0.265173,-0.279751 0.208517,-0.866308 -0.04208,-0.435705 -0.02414,-0.656619 0.062,-0.763204 0.248547,-0.30754 0.898164,-0.715966 2.231369,-1.402902 1.323148,-0.681754 1.394644,-0.733969 2.033069,-1.484767 0.36393,-0.4279897 0.892893,-0.9480627 1.175472,-1.1557163 C 17.048224,8.8814726 17.771084,8.2694713 18.372,7.7291237 20.109592,6.166669 20.365553,5.982572 20.800331,5.982572 c 0.300333,0 0.408174,-0.048975 0.5354,-0.2431456 0.210731,-0.3216168 0.130589,-0.4910283 -0.250009,-0.5284899 l -0.311597,-0.03067 0.49149,-0.2583434 c 0.306485,-0.1610988 0.638548,-0.2583433 0.882171,-0.2583433 0.387459,0 0.390298,-0.00252 0.344357,-0.3061947 -0.02651,-0.175208 0.01426,-0.4271053 0.09529,-0.5888358 0.24175,-0.482481 0.283821,-0.5103669 0.59359,-0.3934422 0.415374,0.1567864 0.845881,-0.1191405 1.460948,-0.9363722 0.864529,-1.1486916 1.118858,-1.2608064 2.435971,-1.073842 0.996388,0.1414374 1.312963,0.073082 1.741311,-0.37598854 0.264085,-0.27685977 0.539506,-0.42494001 1.23492,-0.66395557 1.264177,-0.43450057 1.943474,-0.43459226 3.014839,-4.0691e-4 0.912326,0.36973248 1.240255,0.39041622 3.913504,0.24683966 1.777175,-0.0954496 1.970664,-0.048027 1.875422,0.45965226 -0.05764,0.3072631 -0.04881,0.3175923 0.397094,0.4643382 0.250826,0.082547 1.039827,0.2339995 1.753335,0.3365624 0.713507,0.1025628 1.492168,0.2726837 1.730358,0.3780463 0.586204,0.2593058 1.695568,1.0669856 3.644747,2.6535834 l 0.360073,0.2930923 -0.06181,0.9075799 c -0.07233,1.0621005 0.01436,1.2707639 0.53149,1.2792333 0.349099,0.00572 0.356335,0.030895 0.223751,0.7785511 -0.06712,0.3785279 -0.05228,0.4143431 0.327531,0.7903797 l 0.397842,0.3938851 -0.05861,0.5757194 c -0.05316,0.5221801 -0.033,0.6195271 0.216775,1.0467881 0.151463,0.259088 0.516804,0.746644 0.811869,1.083458 0.785522,0.896666 1.070064,1.342938 1.141637,1.790529 0.03554,0.222273 -0.01156,1.092013 -0.106458,1.965613 -0.200312,1.844045 -0.165,2.160304 0.279016,2.498971 0.526136,0.401304 0.902357,1.171245 1.055654,2.160406 0.189384,1.222017 0.273905,6.315386 0.135526,8.166948 -0.214857,2.874852 -0.616961,5.825842 -1.049357,7.701123 -0.200249,0.868463 -0.306074,1.040732 -0.419597,0.683049 -0.03289,-0.103635 -0.118138,-0.188427 -0.189434,-0.188427 -0.379892,0 -0.753027,1.172028 -0.839846,2.637984 -0.09917,1.674516 -0.218719,1.98825 -1.066236,2.798135 l -0.710695,0.679137 0.06249,0.609969 c 0.08077,0.788381 -0.06916,1.169335 -0.875364,2.22414 -0.396182,0.518349 -0.940645,1.451164 -1.540281,2.638924 -0.926093,1.834406 -0.927395,1.837971 -0.866875,2.372202 0.03334,0.294269 0.03254,0.623474 -0.0018,0.731566 -0.03431,0.108093 -0.345492,0.422852 -0.691523,0.699466 -0.49893,0.39884 -0.694602,0.63506 -0.9454,1.141305 -0.185693,0.374827 -0.321824,0.798657 -0.329748,1.026629 l -0.01349,0.388259 -0.669467,-0.03268 c -0.780969,-0.03812 -0.844333,0.02551 -0.656687,0.659475 0.06667,0.225257 0.102626,0.462552 0.0799,0.527324 -0.05517,0.157202 -0.854104,0.140494 -1.580153,-0.03304 z"
       id="path1"
       transform="scale(0.26458333)" />
    <path
       style="fill:#ffe98f;fill-opacity:1;stroke-width:0.0942137"
       d="m 39.805302,55.9193 c -0.513422,-0.0804 -0.668106,-0.124857 -2.967733,-0.852852 -1.524882,-0.482735 -1.581476,-0.492987 -2.967732,-0.537603 -1.017968,-0.03276 -1.999685,0.0099 -3.510209,0.152585 -3.42247,0.323264 -4.098143,0.281985 -6.947515,-0.424453 C 20.98437,53.655073 20.686059,53.528385 19.873156,52.754031 19.05841,51.977921 18.750812,51.808541 16.204762,50.734025 13.155306,49.447056 12.366337,48.986142 11.369161,47.909073 9.972426,46.400432 8.5972735,43.731201 7.4384483,40.279387 5.9379752,35.8099 5.4417623,32.327501 5.3102079,25.343494 l -0.055014,-2.920626 1.5100553,-3.015832 c 0.8305306,-1.658707 1.6014133,-3.131975 1.7130731,-3.273927 0.1356797,-0.172489 0.2912874,-0.258095 0.4691428,-0.258095 0.335943,0 1.4852769,-0.5865 1.9812169,-1.011006 0.376347,-0.322139 0.376966,-0.323806 0.376966,-1.015072 0,-0.674085 0.0085,-0.699438 0.323083,-0.958349 0.177695,-0.146271 0.988681,-0.625115 1.802192,-1.064098 1.346617,-0.726657 1.534988,-0.860676 2.10292,-1.496152 0.343097,-0.3839002 1.09017,-1.089491 1.660163,-1.567979 0.569993,-0.4784881 1.375521,-1.1726152 1.790061,-1.5425048 1.029695,-0.9187852 1.380746,-1.1503253 1.836813,-1.2114968 0.268793,-0.036053 0.43545,-0.121299 0.535419,-0.2738722 0.176552,-0.2694512 0.104035,-0.505622 -0.155253,-0.505622 -0.534835,0 0.205977,-0.4387438 0.901864,-0.5341257 0.395142,-0.05416 0.414172,-0.071184 0.414172,-0.3705143 0,-0.1725602 0.07251,-0.4657918 0.161123,-0.6516257 0.152976,-0.3207926 0.179143,-0.3348357 0.517418,-0.2776846 0.466221,0.078768 0.86399,-0.1639415 1.393492,-0.8502741 0.218527,-0.2832518 0.56932,-0.6703929 0.77954,-0.8603135 l 0.382216,-0.3453103 1.153592,0.061671 c 1.275691,0.068198 1.526468,0.015884 1.972046,-0.41138077 0.500598,-0.48002363 1.860378,-0.94219696 2.772079,-0.94219696 0.283076,0 0.836189,0.11614425 1.333348,0.27998001 1.14722,0.37806077 1.454828,0.40436297 3.506482,0.29982485 2.113684,-0.10769872 2.269702,-0.0820739 2.309005,0.37923877 0.03757,0.440955 0.155378,0.4884632 2.036821,0.82139 0.844428,0.1494239 1.729689,0.3576562 1.967245,0.4627385 0.469624,0.2077374 1.342835,0.8287108 2.906363,2.0668269 L 46.711287,5.1517 46.660557,6.0723273 c -0.04691,0.8513398 -0.03557,0.9357858 0.150683,1.1220392 0.110776,0.1107765 0.310777,0.2014119 0.444444,0.2014119 0.241901,0 0.242746,0.00275 0.181269,0.5888358 l -0.06177,0.5888359 0.386279,0.3746335 c 0.383201,0.3716475 0.385804,0.3788381 0.326601,0.9021321 -0.07616,0.6731893 0.09826,1.0332093 1.093119,2.2562493 1.096369,1.347832 1.077163,1.289795 0.981584,2.96611 -0.04437,0.778155 -0.08236,1.741854 -0.08442,2.141553 l -0.0038,0.726726 0.437383,0.450946 c 0.885024,0.912468 1.014551,1.488056 1.108384,4.925383 0.08376,3.068544 0.0519,4.587889 -0.140313,6.689891 -0.242305,2.649843 -0.782819,6.060144 -1.087519,6.861563 -0.08317,0.218749 -0.09565,0.222367 -0.213068,0.06178 -0.172102,-0.235365 -0.389482,-0.127023 -0.607882,0.302967 -0.228934,0.450731 -0.360256,1.113795 -0.481386,2.430593 -0.134292,1.459888 -0.220655,1.67288 -1.016571,2.507133 l -0.684119,0.717072 v 0.675607 c 0,0.838732 -0.0787,1.027253 -0.984613,2.358596 -0.401027,0.589352 -1.086101,1.791348 -1.522389,2.6711 -0.77994,1.572711 -0.793023,1.610626 -0.779685,2.259525 l 0.01357,0.659973 -0.72059,0.686376 c -0.753335,0.717564 -1.122969,1.344968 -1.246122,2.115119 l -0.06022,0.37659 h -0.641895 c -0.353042,0 -0.66934,0.04441 -0.702886,0.09869 -0.03355,0.05428 -0.01007,0.310942 0.05216,0.570367 0.06224,0.259425 0.09469,0.490151 0.07211,0.512722 -0.09253,0.09253 -0.621804,0.115649 -1.063651,0.04645 z"
       id="path3"
       transform="scale(0.26458333)" />
  </g>
</svg>
