<?xml version="1.0" encoding="UTF-8" standalone="no"?>
<!-- Created with Inkscape (http://www.inkscape.org/) -->

<svg
   width="15mm"
   height="15mm"
   viewBox="0 0 15 15"
   version="1.1"
   id="svg1"
   inkscape:export-filename="cheese2.svg"
   inkscape:export-xdpi="100"
   inkscape:export-ydpi="100"
   sodipodi:docname="cheese1.svg"
   xmlns:inkscape="http://www.inkscape.org/namespaces/inkscape"
   xmlns:sodipodi="http://sodipodi.sourceforge.net/DTD/sodipodi-0.dtd"
   xmlns="http://www.w3.org/2000/svg"
   xmlns:svg="http://www.w3.org/2000/svg">
  <sodipodi:namedview
     id="namedview1"
     pagecolor="#ffffff"
     bordercolor="#000000"
     borderopacity="0.25"
     inkscape:showpageshadow="2"
     inkscape:pageopacity="0.0"
     inkscape:pagecheckerboard="0"
     inkscape:deskcolor="#d1d1d1"
     inkscape:document-units="mm">
    <inkscape:page
       x="0"
       y="0"
       width="15"
       height="15"
       id="page2"
       margin="0"
       bleed="0" />
  </sodipodi:namedview>
  <defs
     id="defs1" />
  <g
     inkscape:label="Layer 1"
     inkscape:groupmode="layer"
     id="layer1">
    <path
       style="fill:#ffe98f;fill-opacity:1;stroke:none;stroke-width:0.1;stroke-linecap:round;stroke-dasharray:none"
       d="M 8.6996566,14.607446 C 6.6556038,15.296075 5.7262675,14.521638 4.7112753,13.859625 4.2123796,13.647048 3.9711387,13.668703 2.7918669,12.837602 0.66351994,8.3567578 1.0381239,6.0213002 2.1437549,4.3124372 2.4843122,4.1063474 2.7560659,3.8864969 2.7669394,3.6144704 4.7666695,2.4082621 5.3760055,1.5496522 6.6556111,0.52347504 7.7930432,0.35510986 7.8719684,0.28297257 8.3506733,0.17449169 11.958102,0.18482937 11.595764,1.0397985 12.2892,1.6701346 c 0.315747,1.1086428 0.631493,1.5560682 0.94724,2.2434644 0.392188,2.2888857 0.524776,4.4047049 -0.07478,6.0324266 -0.730927,1.6530144 -1.610559,3.5764024 -1.645207,3.9634544 -0.149286,1.16165 -1.5890539,0.805086 -2.8167944,0.697966 z"
       id="path1"
       sodipodi:nodetypes="cccccccccccc" />
  </g>
</svg>
