<?xml version="1.0" encoding="UTF-8" standalone="no"?>
<!-- Created with Inkscape (http://www.inkscape.org/) -->

<svg
   width="110mm"
   height="110mm"
   viewBox="0 0 110 110"
   version="1.1"
   id="svg1"
   inkscape:export-filename="cheese1.svg"
   inkscape:export-xdpi="100"
   inkscape:export-ydpi="100"
   sodipodi:docname="crust.svg"
   xmlns:inkscape="http://www.inkscape.org/namespaces/inkscape"
   xmlns:sodipodi="http://sodipodi.sourceforge.net/DTD/sodipodi-0.dtd"
   xmlns="http://www.w3.org/2000/svg"
   xmlns:svg="http://www.w3.org/2000/svg">
  <sodipodi:namedview
     id="namedview1"
     pagecolor="#ffffff"
     bordercolor="#000000"
     borderopacity="0.25"
     inkscape:showpageshadow="2"
     inkscape:pageopacity="0.0"
     inkscape:pagecheckerboard="0"
     inkscape:deskcolor="#d1d1d1"
     inkscape:document-units="mm">
    <inkscape:page
       x="0"
       y="0"
       width="110.00001"
       height="110.00001"
       id="page2"
       margin="0"
       bleed="0" />
  </sodipodi:namedview>
  <defs
     id="defs1" />
  <g
     inkscape:label="Layer 1"
     inkscape:groupmode="layer"
     id="layer1">
    <path
       style="fill:none;stroke:#dd9955;stroke-width:7;stroke-linecap:round;stroke-dasharray:none;stroke-opacity:1"
       d="m 105.58869,55.388647 c -0.0868,1.326611 -0.079,2.369825 -0.2742,4.021619 -0.15677,1.218069 -0.32639,2.346215 -0.3656,4.38722 0.11984,1.625572 0.15204,3.280357 -0.0914,5.027023 -0.0264,0.746567 -0.93283,1.414272 -1.66806,3.930216 -0.46802,2.831549 -1.49281,3.032379 -2.07936,4.204419 -0.98106,1.205258 -1.903801,2.422183 -2.285001,3.747416 -0.924739,1.525181 -1.998623,3.322911 -3.244714,3.998768 -0.782857,0.628525 -1.394209,1.222492 -2.170762,2.673463 -0.441768,0.988963 -1.180588,1.920605 -1.622356,2.787712 -1.263188,1.351558 -2.228994,2.842601 -4.067319,4.021618 -1.659991,1.138752 -2.984533,2.319436 -4.158717,3.518915 -1.705552,1.316363 -3.076092,1.87895 -4.29582,2.10221"
       id="path1"
       sodipodi:nodetypes="ccccccccccccc" />
  </g>
</svg>
