<?xml version="1.0" encoding="UTF-8" standalone="no"?>
<!-- Created with Inkscape (http://www.inkscape.org/) -->

<svg
   width="110mm"
   height="110mm"
   viewBox="0 0 110 110"
   version="1.1"
   id="svg1"
   inkscape:export-filename="cheese1.svg"
   inkscape:export-xdpi="100"
   inkscape:export-ydpi="100"
   sodipodi:docname="cheese.svg"
   xmlns:inkscape="http://www.inkscape.org/namespaces/inkscape"
   xmlns:sodipodi="http://sodipodi.sourceforge.net/DTD/sodipodi-0.dtd"
   xmlns="http://www.w3.org/2000/svg"
   xmlns:svg="http://www.w3.org/2000/svg">
  <sodipodi:namedview
     id="namedview1"
     pagecolor="#ffffff"
     bordercolor="#000000"
     borderopacity="0.25"
     inkscape:showpageshadow="2"
     inkscape:pageopacity="0.0"
     inkscape:pagecheckerboard="0"
     inkscape:deskcolor="#d1d1d1"
     inkscape:document-units="mm">
    <inkscape:page
       x="0"
       y="0"
       width="110.00001"
       height="110.00001"
       id="page2"
       margin="0"
       bleed="0" />
  </sodipodi:namedview>
  <defs
     id="defs1" />
  <g
     inkscape:label="Layer 1"
     inkscape:groupmode="layer"
     id="layer1">
    <path
       style="fill:none;fill-opacity:1;stroke:#dd9955;stroke-width:7;stroke-linecap:round;stroke-linejoin:miter;stroke-dasharray:none;stroke-opacity:1"
       d="m 79.391924,99.76419 c 0.133152,-0.03329 0.432745,0.03329 0.399455,-0.09986 -0.03329,-0.133154 -0.532606,0.133152 -0.399455,0.09986 0.86024,-0.215059 0.594069,-0.147238 1.098505,-0.399455 0.415423,-0.207711 0.915903,-0.344297 1.298231,-0.599183 0.424659,-0.283107 0.859814,-0.585621 1.298234,-0.898779 0.189212,-0.135149 0.406628,-0.271084 0.599183,-0.399455 0.08759,-0.05839 0.225158,-0.02543 0.299593,-0.09986 0.02355,-0.02355 -0.02355,-0.07633 0,-0.09986 0.09135,-0.09135 0.678633,-0.487072 0.699048,-0.499319 0.153334,-0.092 0.428808,-0.07195 0.599186,-0.199729 0.07532,-0.05649 0.121388,-0.147503 0.199726,-0.199729 0.0277,-0.01847 0.07633,0.02355 0.09986,0 0.02355,-0.02355 -0.02355,-0.07633 0,-0.09986 0.283308,-0.283305 1.037778,-0.610521 1.398098,-0.898776 0.183801,-0.147043 0.30347,-0.368753 0.499319,-0.499319 0.0277,-0.01847 0.07633,0.02355 0.09986,0 0.05263,-0.05263 0.05337,-0.141605 0.09986,-0.199729 0.205859,-0.257323 0.456906,-0.475533 0.699048,-0.699048 0.294539,-0.271883 0.588544,-0.545086 0.898776,-0.798914 0.05761,-0.04713 0.147095,-0.04723 0.199729,-0.09987 0.05263,-0.05263 0.04723,-0.147095 0.09986,-0.199726 0.05263,-0.05263 0.147095,-0.04723 0.199729,-0.09986 0.03329,-0.03329 0.06658,-0.266306 0.09986,-0.299593 0.02355,-0.02355 0.07632,0.02355 0.09986,0 0.01,-0.01 0.36529,-0.565018 0.399455,-0.599183 0.180674,-0.180674 0.518377,-0.318649 0.69905,-0.499322 0.01966,-0.01966 0.472938,-0.520041 0.49932,-0.599183 0.02106,-0.06316 -0.02977,-0.140182 0,-0.199729 0.0149,-0.02977 0.07633,0.02355 0.09986,0 0.249436,-0.249433 0.503433,-0.605351 0.699048,-0.898777 0.151767,-0.22765 0.140665,-0.476548 0.299593,-0.699047 0.133151,-0.166442 0.266303,-0.33288 0.399454,-0.499322 0.06658,-0.03329 0.147098,-0.04723 0.199729,-0.09986 0.389744,-0.389742 -0.02312,-0.05363 0.09986,-0.299591 0.06316,-0.12632 0.221253,-0.182083 0.299593,-0.299593 0.305356,-0.458033 0.565719,-0.954021 0.898777,-1.398095 0.214045,-0.285395 0.500991,-0.501827 0.699047,-0.798915 0.08258,-0.123864 0.104426,-0.285091 0.199729,-0.399454 0.445161,-0.534194 0.161986,0.106545 0.499319,-0.399458 0.06188,-0.09282 -0.05927,-0.30462 0,-0.399454 0.36712,-0.587391 0.765656,-1.156798 1.198369,-1.697691 0.147042,-0.183801 0.342943,-0.323392 0.499322,-0.499319 0.185886,-0.209124 0.306713,-0.606306 0.499319,-0.798912 0.206624,-0.206624 -0.0081,0.315746 0.199729,-0.09987 0.05326,-0.106521 -0.05326,-0.292936 0,-0.399457 0.07615,-0.152297 0.291451,-0.49118 0.399457,-0.599183 0.05263,-0.05263 0.147095,-0.04723 0.199726,-0.09986 0.02355,-0.02355 -0.02355,-0.07633 0,-0.09986 0.02355,-0.02355 0.07633,0.02355 0.09986,0 0.02535,-0.02535 0.07938,-0.558207 0.09987,-0.599183 0.157786,-0.315574 0.447127,-0.394933 0.599183,-0.699051 0.129291,-0.25858 0.289402,-0.653864 0.499322,-0.898776 0.12255,-0.14297 0.2887,-0.247166 0.39946,-0.399455 0.15785,-0.217045 0.25059,-0.475747 0.39945,-0.699047 0.18133,-0.271995 0.41786,-0.526921 0.59919,-0.798915 0.0763,-0.11444 0.0651,-0.260519 0.0999,-0.399455 0.0489,-0.195574 0.21755,-0.335224 0.29959,-0.499321 0.0631,-0.126138 -0.0774,-0.383178 0,-0.499319 0.0522,-0.07834 0.15763,-0.115515 0.19973,-0.199729 0.0723,-0.144669 0.26384,-0.863023 0.39946,-0.998641 0.0236,-0.02355 0.085,0.02977 0.0999,0 0.0298,-0.05955 -0.0211,-0.136567 0,-0.199728 0.0447,-0.13398 0.22125,-0.182081 0.29959,-0.299591 0.14887,-0.223303 0.24556,-0.479187 0.39946,-0.69905 0.081,-0.1157 0.20768,-0.192363 0.29959,-0.29959 0.10832,-0.126371 0.21396,-0.256736 0.2996,-0.399458 0.0171,-0.02854 -0.0236,-0.07632 0,-0.09986 0.13183,-0.131839 0.23748,-0.113281 0.29959,-0.29959 0.0503,-0.150887 -0.0387,-0.344594 0,-0.499322 0.11012,-0.440505 0.25894,-0.876692 0.39945,-1.298234 0.0584,-0.175297 -0.0361,-0.418451 0,-0.599183 0.18229,-0.911402 0.2996,-1.657972 0.2996,-2.596465 0,-0.589957 -0.11052,-2.553848 0,-2.995922 0.20385,-0.815416 0.19972,-1.735973 0.19972,-2.596464 0,-0.266782 -0.0972,-1.103763 0,-1.298234 0.0537,-0.107352 0.11486,-0.214725 0.19973,-0.299593 0.0236,-0.02355 0.085,0.02977 0.0999,0 0.0808,-0.16156 0,-2.515021 0,-2.995922"
       id="path10" />
  </g>
</svg>
