<?xml version="1.0" encoding="UTF-8" standalone="no"?>
<!-- Created with Inkscape (http://www.inkscape.org/) -->

<svg
   width="15mm"
   height="15mm"
   viewBox="0 0 15 15"
   version="1.1"
   id="svg1"
   sodipodi:docname="leaf0.svg"
   xmlns:inkscape="http://www.inkscape.org/namespaces/inkscape"
   xmlns:sodipodi="http://sodipodi.sourceforge.net/DTD/sodipodi-0.dtd"
   xmlns="http://www.w3.org/2000/svg"
   xmlns:svg="http://www.w3.org/2000/svg">
  <sodipodi:namedview
     id="namedview1"
     pagecolor="#ffffff"
     bordercolor="#000000"
     borderopacity="0.25"
     inkscape:showpageshadow="2"
     inkscape:pageopacity="0.0"
     inkscape:pagecheckerboard="0"
     inkscape:deskcolor="#d1d1d1"
     inkscape:document-units="mm">
    <inkscape:page
       x="0"
       y="0"
       width="15"
       height="15"
       id="page2"
       margin="0"
       bleed="0" />
  </sodipodi:namedview>
  <defs
     id="defs1" />
  <g
     inkscape:label="Layer 1"
     inkscape:groupmode="layer"
     id="layer1">
    <path
       style="fill:#005f00;stroke-width:0.1;stroke-linecap:round"
       d="m 8.0328065,13.714012 c -0.390567,-0.49845 -0.861189,-0.988005 -1.462984,-1.462985 -0.152102,-0.151659 -0.398599,-0.267013 -0.264395,-0.52879 -0.0493,-0.322708 -0.215002,-0.325313 -0.352527,-0.405405 C 5.7303785,11.175821 5.6588365,11.034811 5.6708795,10.8938 5.6311135,10.674999 5.5990435,10.451923 5.3536055,10.347384 5.1996975,10.01105 5.0962455,9.7377876 5.0363325,9.5189474 4.7893025,7.7951642 5.0228645,6.3335223 5.0187055,4.7422142 c 0.439978,-1.2811197 0.41257,-0.8854706 0.564042,-1.2514689 0.159185,-0.2402507 0.509636,-0.4613748 0.458285,-0.722679 0.259616,-0.4284264 0.239948,-0.3381822 0.352526,-0.493537 0.240804,-0.2232668 0.428555,-0.4465335 0.599295,-0.6698003 0.380111,0.2115159 0.433161,0.4230317 0.599295,0.6345476 0.352067,0.4588594 0.830649,0.7595737 1.269095,1.1104583 l 0.616922,0.5287896 c 0.114021,0.1774571 0.208381,0.3450836 0.229142,0.4759108 0.08717,0.3230193 0.189005,0.5580933 0.2996465,0.7403055 0.09667,1.1019178 0.29529,2.1018897 0.176264,3.4195064 -0.08807,0.3876224 -0.08275,0.5261783 -0.105758,0.7403055 -0.02108,0.1626474 0.006,0.3349218 -0.1233845,0.4759105 -0.08644,0.3819038 -0.17112,0.7638068 -0.211516,1.1457108 -0.08513,0.261478 -0.180128,0.519667 -0.3349,0.757932 -0.138795,0.135135 -0.282081,0.27027 -0.352526,0.405405 -0.141899,0.08107 -0.267188,0.290048 -0.475911,0.282021 -0.182138,0.23015 -0.364277,0.776129 -0.546416,1.39248 z"
       id="path3"
       sodipodi:nodetypes="ccccccccccccccccccccccccc" />
  </g>
</svg>
