<?xml version="1.0" encoding="UTF-8" standalone="no"?>
<!-- Created with Inkscape (http://www.inkscape.org/) -->

<svg
   width="15mm"
   height="15mm"
   viewBox="0 0 15 15"
   version="1.1"
   id="svg1"
   sodipodi:docname="cheese1.svg"
   xmlns:inkscape="http://www.inkscape.org/namespaces/inkscape"
   xmlns:sodipodi="http://sodipodi.sourceforge.net/DTD/sodipodi-0.dtd"
   xmlns="http://www.w3.org/2000/svg"
   xmlns:svg="http://www.w3.org/2000/svg">
  <sodipodi:namedview
     id="namedview1"
     pagecolor="#ffffff"
     bordercolor="#000000"
     borderopacity="0.25"
     inkscape:showpageshadow="2"
     inkscape:pageopacity="0.0"
     inkscape:pagecheckerboard="0"
     inkscape:deskcolor="#d1d1d1"
     inkscape:document-units="mm">
    <inkscape:page
       x="0"
       y="0"
       width="15"
       height="15"
       id="page2"
       margin="0"
       bleed="0" />
  </sodipodi:namedview>
  <defs
     id="defs1" />
  <g
     inkscape:label="Layer 1"
     inkscape:groupmode="layer"
     id="layer1">
    <path
       style="fill:#005f00;fill-opacity:1;stroke-width:0.264583"
       d="M 6.3844008,11.412409 5.2150964,10.196332"
       id="path1" />
    <path
       style="fill:#005f00;fill-opacity:1;stroke-width:0.264583"
       d="M 5.07478,8.5826927 4.3965836,7.6472493"
       id="path2" />
    <path
       style="fill:#005f00;fill-opacity:1;stroke-width:0.264583"
       d="m 7.8577241,13.283295 c -0.2494516,0 -0.7483547,-0.249451 -0.7483547,0 0,0.249452 0.8721172,0.216585 0.7483547,0 -0.3289038,-0.575581 -1.0279497,-0.84086 -1.4967096,-1.30962 -0.093544,-0.09355 0.093545,-0.467722 0,-0.561266 -0.062363,-0.06236 -0.4989031,-0.124726 -0.5612659,-0.187089 -0.088194,-0.0882 0.069185,-0.270399 0,-0.374177 -0.1467644,-0.220147 -0.4429408,-0.324616 -0.5612659,-0.561266 -0.074835,-0.149671 0.074836,-0.4115954 0,-0.5612665 -0.027889,-0.055779 -0.1247259,0 -0.1870887,0 C 4.989031,9.6662475 4.8921947,9.6251904 4.8643053,9.5415221 c -0.1632916,-0.4898748 0,-1.3466922 0,-1.8708868 0,-0.664818 -0.2121752,-2.9432453 0,-3.367596 C 4.9732726,4.085105 5.1295154,3.9597078 5.2384827,3.7417734 5.337829,3.5430804 5.2587974,3.1601931 5.4255714,2.9934185 c 0.044097,-0.044097 0.159199,0.055779 0.1870885,0 0.055779,-0.1115581 -0.055779,-0.262619 0,-0.3741772 0.02789,-0.055779 0.1429914,0.044097 0.1870887,0 0.3870931,-0.3870931 -0.5915295,0.015132 0.1870887,-0.3741773 0.055779,-0.02789 0.1429915,0.044097 0.1870888,0 0.088194,-0.088195 -0.055779,-0.2626192 0,-0.3741773 C 6.563235,1.0922685 6.1610091,2.0708911 6.5481032,1.683798 6.6416477,1.5902537 6.6416477,1.403165 6.735192,1.3096206 7.0730744,0.97173816 7.3810782,1.9555068 7.4835466,2.0579753 c 0.044097,0.044097 0.1313095,-0.027889 0.1870887,0 0.2788952,0.1394477 0.5048684,0.3664771 0.7483547,0.561266 1.682156,1.3457246 -0.6608003,-0.4737116 0.5612659,0.7483547 0.044097,0.044097 0.1429914,-0.044097 0.1870887,0 0.5267926,0.011613 0.047641,0.4218183 0.1870887,0.5612659 0.044097,0.044097 0.1429914,-0.044097 0.1870888,0 0.088194,0.088195 -0.088195,0.2859831 0,0.3741774 0.044097,0.044097 0.1429914,-0.044097 0.1870884,0 0.088195,0.088194 -0.055779,0.2626191 0,0.3741772 0.3498385,0.6996779 0.3741775,1.4120802 0.3741775,2.2450642 0,0.2247183 0.09836,0.7387201 0,0.9354434 -0.03944,0.078883 -0.159199,0.10342 -0.1870888,0.1870884 -0.076179,0.2285373 -0.02372,1.1462515 -0.1870887,1.3096208 -0.044097,0.044097 -0.159199,-0.055779 -0.1870884,0 -0.2245064,0.4490128 0.2245063,1.2347857 0,1.6837977 -0.196549,0.393098 -0.3705421,-0.0036 -0.5612662,0.187089 -0.088194,0.08819 0.088195,0.285983 0,0.374177 -0.088194,0.0882 -0.2859829,-0.08819 -0.3741772,0 -0.044097,0.0441 0.044097,0.142992 0,0.187089 -0.088195,0.08819 -0.2626193,-0.05578 -0.3741775,0 -0.4605258,0.230263 -0.3665018,1.442981 -0.3741771,1.496709 z"
       id="path5" />
  </g>
</svg>
